  0
SECTION
  2
HEADER
  9
$ACADVER
  1
AC1014
  9
$ACADMAINTVER
 70
     9
  9
$DWGCODEPAGE
  3
ANSI_1252
  9
$INSBASE
 10
0.0
 20
0.0
 30
0.0
  9
$EXTMIN
 10
1.000000000000000E+20
 20
1.000000000000000E+20
 30
1.000000000000000E+20
  9
$EXTMAX
 10
-1.000000000000000E+20
 20
-1.000000000000000E+20
 30
-1.000000000000000E+20
  9
$LIMMIN
 10
0.0
 20
0.0
  9
$LIMMAX
 10
12.0
 20
9.0
  9
$ORTHOMODE
 70
     0
  9
$REGENMODE
 70
     1
  9
$FILLMODE
 70
     1
  9
$QTEXTMODE
 70
     0
  9
$MIRRTEXT
 70
     1
  9
$DRAGMODE
 70
     2
  9
$LTSCALE
 40
1.0
  9
$OSMODE
 70
    37
  9
$ATTMODE
 70
     1
  9
$TEXTSIZE
 40
0.2
  9
$TRACEWID
 40
0.05
  9
$TEXTSTYLE
  7
STANDARD
  9
$CLAYER
  8
0
  9
$CELTYPE
  6
BYLAYER
  9
$CECOLOR
 62
   256
  9
$CELTSCALE
 40
1.0
  9
$DELOBJ
 70
     1
  9
$DISPSILH
 70
     0
  9
$DIMSCALE
 40
1.0
  9
$DIMASZ
 40
0.18
  9
$DIMEXO
 40
0.0625
  9
$DIMDLI
 40
0.38
  9
$DIMRND
 40
0.0
  9
$DIMDLE
 40
0.0
  9
$DIMEXE
 40
0.18
  9
$DIMTP
 40
0.0
  9
$DIMTM
 40
0.0
  9
$DIMTXT
 40
0.18
  9
$DIMCEN
 40
0.09
  9
$DIMTSZ
 40
0.0
  9
$DIMTOL
 70
     0
  9
$DIMLIM
 70
     0
  9
$DIMTIH
 70
     1
  9
$DIMTOH
 70
     1
  9
$DIMSE1
 70
     0
  9
$DIMSE2
 70
     0
  9
$DIMTAD
 70
     0
  9
$DIMZIN
 70
     0
  9
$DIMBLK
  1

  9
$DIMASO
 70
     1
  9
$DIMSHO
 70
     1
  9
$DIMPOST
  1

  9
$DIMAPOST
  1

  9
$DIMALT
 70
     0
  9
$DIMALTD
 70
     2
  9
$DIMALTF
 40
25.4
  9
$DIMLFAC
 40
1.0
  9
$DIMTOFL
 70
     0
  9
$DIMTVP
 40
0.0
  9
$DIMTIX
 70
     0
  9
$DIMSOXD
 70
     0
  9
$DIMSAH
 70
     0
  9
$DIMBLK1
  1

  9
$DIMBLK2
  1

  9
$DIMSTYLE
  2
STANDARD
  9
$DIMCLRD
 70
     0
  9
$DIMCLRE
 70
     0
  9
$DIMCLRT
 70
     0
  9
$DIMTFAC
 40
1.0
  9
$DIMGAP
 40
0.09
  9
$DIMJUST
 70
     0
  9
$DIMSD1
 70
     0
  9
$DIMSD2
 70
     0
  9
$DIMTOLJ
 70
     1
  9
$DIMTZIN
 70
     0
  9
$DIMALTZ
 70
     0
  9
$DIMALTTZ
 70
     0
  9
$DIMFIT
 70
     3
  9
$DIMUPT
 70
     0
  9
$DIMUNIT
 70
     2
  9
$DIMDEC
 70
     4
  9
$DIMTDEC
 70
     4
  9
$DIMALTU
 70
     2
  9
$DIMALTTD
 70
     2
  9
$DIMTXSTY
  7
STANDARD
  9
$DIMAUNIT
 70
     0
  9
$LUNITS
 70
     2
  9
$LUPREC
 70
     4
  9
$SKETCHINC
 40
0.1
  9
$FILLETRAD
 40
0.5
  9
$AUNITS
 70
     0
  9
$AUPREC
 70
     0
  9
$MENU
  1
.
  9
$ELEVATION
 40
0.0
  9
$PELEVATION
 40
0.0
  9
$THICKNESS
 40
0.0
  9
$LIMCHECK
 70
     0
  9
$CHAMFERA
 40
0.5
  9
$CHAMFERB
 40
0.5
  9
$CHAMFERC
 40
1.0
  9
$CHAMFERD
 40
0.0
  9
$SKPOLY
 70
     0
  9
$TDCREATE
 40
2457130.82708456
  9
$TDUPDATE
 40
2457130.827084572
  9
$TDINDWG
 40
0.0000000116
  9
$TDUSRTIMER
 40
0.0000000116
  9
$USRTIMER
 70
     1
  9
$ANGBASE
 50
0.0
  9
$ANGDIR
 70
     0
  9
$PDMODE
 70
     0
  9
$PDSIZE
 40
0.0
  9
$PLINEWID
 40
0.0
  9
$COORDS
 70
     1
  9
$SPLFRAME
 70
     0
  9
$SPLINETYPE
 70
     6
  9
$SPLINESEGS
 70
     8
  9
$ATTDIA
 70
     0
  9
$ATTREQ
 70
     1
  9
$HANDLING
 70
     1
  9
$HANDSEED
  5
6E
  9
$SURFTAB1
 70
     6
  9
$SURFTAB2
 70
     6
  9
$SURFTYPE
 70
     6
  9
$SURFU
 70
     6
  9
$SURFV
 70
     6
  9
$UCSNAME
  2

  9
$UCSORG
 10
0.0
 20
0.0
 30
0.0
  9
$UCSXDIR
 10
1.0
 20
0.0
 30
0.0
  9
$UCSYDIR
 10
0.0
 20
1.0
 30
0.0
  9
$PUCSNAME
  2

  9
$PUCSORG
 10
0.0
 20
0.0
 30
0.0
  9
$PUCSXDIR
 10
1.0
 20
0.0
 30
0.0
  9
$PUCSYDIR
 10
0.0
 20
1.0
 30
0.0
  9
$USERI1
 70
     0
  9
$USERI2
 70
     0
  9
$USERI3
 70
     0
  9
$USERI4
 70
     0
  9
$USERI5
 70
     0
  9
$USERR1
 40
0.0
  9
$USERR2
 40
0.0
  9
$USERR3
 40
0.0
  9
$USERR4
 40
0.0
  9
$USERR5
 40
0.0
  9
$WORLDVIEW
 70
     1
  9
$SHADEDGE
 70
     3
  9
$SHADEDIF
 70
    70
  9
$TILEMODE
 70
     1
  9
$MAXACTVP
 70
    64
  9
$PINSBASE
 10
0.0
 20
0.0
 30
0.0
  9
$PLIMCHECK
 70
     0
  9
$PEXTMIN
 10
1.000000000000000E+20
 20
1.000000000000000E+20
 30
1.000000000000000E+20
  9
$PEXTMAX
 10
-1.000000000000000E+20
 20
-1.000000000000000E+20
 30
-1.000000000000000E+20
  9
$PLIMMIN
 10
0.0
 20
0.0
  9
$PLIMMAX
 10
12.0
 20
9.0
  9
$UNITMODE
 70
     0
  9
$VISRETAIN
 70
     1
  9
$PLINEGEN
 70
     0
  9
$PSLTSCALE
 70
     1
  9
$TREEDEPTH
 70
  3020
  9
$PICKSTYLE
 70
     1
  9
$CMLSTYLE
  2
STANDARD
  9
$CMLJUST
 70
     0
  9
$CMLSCALE
 40
1.0
  9
$PROXYGRAPHICS
 70
     1
  9
$MEASUREMENT
 70
     0
  0
ENDSEC
  0
SECTION
  2
CLASSES
  0
CLASS
  1
ACDBDICTIONARYWDFLT
  2
AcDbDictionaryWithDefault
  3
ObjectDBX Classes
 90
        0
280
     0
281
     0
  0
CLASS
  1
VISUALSTYLE
  2
AcDbVisualStyle
  3
ObjectDBX Classes
 90
     4095
280
     0
281
     0
  0
CLASS
  1
XRECORD
  2
AcDbXrecord
  3
AutoCAD 2000
 90
        0
280
     0
281
     0
  0
CLASS
  1
LWPOLYLINE
  2
AcDbPolyline
  3
AutoCAD 2000
 90
        0
280
     0
281
     1
  0
CLASS
  1
HATCH
  2
AcDbHatch
  3
AutoCAD 2000
 90
        0
280
     0
281
     1
  0
CLASS
  1
ACDBPLACEHOLDER
  2
AcDbPlaceHolder
  3
ObjectDBX Classes
 90
        0
280
     0
281
     0
  0
CLASS
  1
LAYOUT
  2
AcDbLayout
  3
ObjectDBX Classes
 90
        0
280
     0
281
     0
  0
ENDSEC
  0
SECTION
  2
TABLES
  0
TABLE
  2
VPORT
  5
8
330
0
100
AcDbSymbolTable
 70
     1
  0
VPORT
  5
29
330
8
100
AcDbSymbolTableRecord
100
AcDbViewportTableRecord
  2
*ACTIVE
 70
     0
 10
0.0
 20
0.0
 11
1.0
 21
1.0
 12
0.0
 22
0.0
 13
0.0
 23
0.0
 14
0.5
 24
0.5
 15
0.5
 25
0.5
 16
0.0
 26
0.0
 36
1.0
 17
2.150002095975341
 27
-2.000001318889759
 37
0.0
 40
4.000002637779517
 41
1.075000339084201
 42
50.0
 43
0.0
 44
0.0
 50
0.0
 51
0.0
 71
     0
 72
   100
 73
     1
 74
     3
 75
     0
 76
     0
 77
     0
 78
     0
  0
ENDTAB
  0
TABLE
  2
LTYPE
  5
5
330
0
100
AcDbSymbolTable
 70
     1
  0
LTYPE
  5
14
330
5
100
AcDbSymbolTableRecord
100
AcDbLinetypeTableRecord
  2
BYBLOCK
 70
     0
  3

 72
    65
 73
     0
 40
0.0
  0
LTYPE
  5
15
330
5
100
AcDbSymbolTableRecord
100
AcDbLinetypeTableRecord
  2
BYLAYER
 70
     0
  3

 72
    65
 73
     0
 40
0.0
  0
LTYPE
  5
16
330
5
100
AcDbSymbolTableRecord
100
AcDbLinetypeTableRecord
  2
CONTINUOUS
 70
     0
  3
Solid line
 72
    65
 73
     0
 40
0.0
  0
ENDTAB
  0
TABLE
  2
LAYER
  5
2
330
0
100
AcDbSymbolTable
 70
     2
  0
LAYER
  5
10
330
2
100
AcDbSymbolTableRecord
100
AcDbLayerTableRecord
  2
0
 70
     0
 62
     7
  6
CONTINUOUS
  0
LAYER
  5
3B
330
2
100
AcDbSymbolTableRecord
100
AcDbLayerTableRecord
  2
LAYER_1
 70
     0
 62
     7
  6
CONTINUOUS
  0
ENDTAB
  0
TABLE
  2
STYLE
  5
3
330
0
100
AcDbSymbolTable
 70
     1
  0
STYLE
  5
11
330
3
100
AcDbSymbolTableRecord
100
AcDbTextStyleTableRecord
  2
STANDARD
 70
     0
 40
0.0
 41
1.0
 50
0.0
 71
     0
 42
0.2
  3
txt
  4

  0
ENDTAB
  0
TABLE
  2
VIEW
  5
6
330
0
100
AcDbSymbolTable
 70
     0
  0
ENDTAB
  0
TABLE
  2
UCS
  5
7
330
0
100
AcDbSymbolTable
 70
     0
  0
ENDTAB
  0
TABLE
  2
APPID
  5
9
330
0
100
AcDbSymbolTable
 70
     1
  0
APPID
  5
12
330
9
100
AcDbSymbolTableRecord
100
AcDbRegAppTableRecord
  2
ACAD
 70
     0
  0
ENDTAB
  0
TABLE
  2
DIMSTYLE
  5
A
330
0
100
AcDbSymbolTable
 70
     1
  0
DIMSTYLE
105
27
330
A
100
AcDbSymbolTableRecord
100
AcDbDimStyleTableRecord
  2
STANDARD
 70
     0
  3

  4

  5

  6

  7

 40
1.0
 41
0.18
 42
0.0625
 43
0.38
 44
0.18
 45
0.0
 46
0.0
 47
0.0
 48
0.0
140
0.18
141
0.09
142
0.0
143
25.4
144
1.0
145
0.0
146
1.0
147
0.09
 71
     0
 72
     0
 73
     1
 74
     1
 75
     0
 76
     0
 77
     0
 78
     0
170
     0
171
     2
172
     0
173
     0
174
     0
175
     0
176
     0
177
     0
178
     0
270
     2
271
     4
272
     4
273
     2
274
     2
340
11
275
     0
280
     0
281
     0
282
     0
283
     1
284
     0
285
     0
286
     0
287
     3
288
     0
  0
ENDTAB
  0
TABLE
  2
BLOCK_RECORD
  5
1
330
0
100
AcDbSymbolTable
 70
     1
  0
BLOCK_RECORD
  5
1F
330
1
100
AcDbSymbolTableRecord
100
AcDbBlockTableRecord
  2
*MODEL_SPACE
  0
BLOCK_RECORD
  5
1B
330
1
100
AcDbSymbolTableRecord
100
AcDbBlockTableRecord
  2
*PAPER_SPACE
  0
ENDTAB
  0
ENDSEC
  0
SECTION
  2
BLOCKS
  0
BLOCK
  5
20
330
1F
100
AcDbEntity
  8
0
100
AcDbBlockBegin
  2
*MODEL_SPACE
 70
     0
 71
     0
 10
0.0
 20
0.0
 30
0.0
  3
*MODEL_SPACE
  1

  0
ENDBLK
  5
21
330
1F
100
AcDbEntity
  8
0
100
AcDbBlockEnd
  0
BLOCK
  5
1C
330
1B
100
AcDbEntity
 67
     1
  8
0
100
AcDbBlockBegin
  2
*PAPER_SPACE
 70
     0
 71
     0
 10
0.0
 20
0.0
 30
0.0
  3
*PAPER_SPACE
  1

  0
ENDBLK
  5
1D
330
1B
100
AcDbEntity
 67
     1
  8
0
100
AcDbBlockEnd
  0
ENDSEC
  0
SECTION
  2
ENTITIES
  0
SPLINE
  5
3C
330
1F
100
AcDbEntity
  8
LAYER_1
 62
   230
100
AcDbSpline
210
0.0
220
0.0
230
1.0
 70
    11
 71
     3
 72
    29
 73
    25
 74
     0
 42
0.0000000001
 43
0.0000000001
 40
0.0
 40
0.0
 40
0.0
 40
0.0
 40
1.0
 40
1.0
 40
1.0
 40
2.0
 40
2.0
 40
2.0
 40
3.0
 40
3.0
 40
3.0
 40
4.0
 40
4.0
 40
4.0
 40
5.0
 40
5.0
 40
5.0
 40
6.0
 40
6.0
 40
6.0
 40
7.0
 40
7.0
 40
7.0
 40
8.0
 40
8.0
 40
8.0
 40
8.0
 10
0.314995867444497
 20
-3.792510096435825
 30
0.0
 10
0.2571005927206409
 20
-3.792510096435825
 30
0.0
 10
0.2100017660886647
 20
-3.745411269803849
 30
0.0
 10
0.2100017660886647
 20
-3.687509213391493
 30
0.0
 10
0.2100017660886647
 20
-3.687509213391493
 30
0.0
 10
0.2100017660886647
 20
-0.2149998705131091
 30
0.0
 10
0.2100017660886647
 20
-0.2149998705131091
 30
0.0
 10
0.2100017660886647
 20
-0.1571045957892529
 30
0.0
 10
0.2571005927206409
 20
-0.1100057691572767
 30
0.0
 10
0.314995867444497
 20
-0.1100057691572767
 30
0.0
 10
0.314995867444497
 20
-0.1100057691572767
 30
0.0
 10
3.91251885613049
 20
-0.1100057691572767
 30
0.0
 10
3.91251885613049
 20
-0.1100057691572767
 30
0.0
 10
3.970420912542846
 20
-0.1100057691572767
 30
0.0
 10
4.017519739174823
 20
-0.1571045957892529
 30
0.0
 10
4.017519739174823
 20
-0.2149998705131091
 30
0.0
 10
4.017519739174823
 20
-0.2149998705131091
 30
0.0
 10
4.017519739174823
 20
-3.687509213391493
 30
0.0
 10
4.017519739174823
 20
-3.687509213391493
 30
0.0
 10
4.017519739174823
 20
-3.745411269803849
 30
0.0
 10
3.970420912542846
 20
-3.792510096435825
 30
0.0
 10
3.91251885613049
 20
-3.792510096435825
 30
0.0
 10
3.91251885613049
 20
-3.792510096435825
 30
0.0
 10
0.314995867444497
 20
-3.792510096435825
 30
0.0
 10
0.314995867444497
 20
-3.792510096435825
 30
0.0
  0
SPLINE
  5
3D
330
1F
100
AcDbEntity
  8
LAYER_1
 62
   230
100
AcDbSpline
210
0.0
220
0.0
230
1.0
 70
    11
 71
     3
 72
    17
 73
    13
 74
     0
 42
0.0000000001
 43
0.0000000001
 40
0.0
 40
0.0
 40
0.0
 40
0.0
 40
1.0
 40
1.0
 40
1.0
 40
2.0
 40
2.0
 40
2.0
 40
3.0
 40
3.0
 40
3.0
 40
4.0
 40
4.0
 40
4.0
 40
4.0
 10
3.871245499919949
 20
-0.1840007723799538
 30
0.0
 10
3.829958580332409
 20
-0.1840007723799538
 30
0.0
 10
3.79649772927378
 20
-0.2174684051270816
 30
0.0
 10
3.79649772927378
 20
-0.2587485430261225
 30
0.0
 10
3.79649772927378
 20
-0.3000354626136634
 30
0.0
 10
3.829958580332409
 20
-0.3335030953607913
 30
0.0
 10
3.871245499919949
 20
-0.3335030953607913
 30
0.0
 10
3.91253241950749
 20
-0.3335030953607913
 30
0.0
 10
3.945993270566118
 20
-0.3000354626136634
 30
0.0
 10
3.945993270566118
 20
-0.2587485430261225
 30
0.0
 10
3.945993270566118
 20
-0.2174684051270816
 30
0.0
 10
3.91253241950749
 20
-0.1840007723799538
 30
0.0
 10
3.871245499919949
 20
-0.1840007723799538
 30
0.0
  0
SPLINE
  5
3E
330
1F
100
AcDbEntity
  8
LAYER_1
 62
   230
100
AcDbSpline
210
0.0
220
0.0
230
1.0
 70
    11
 71
     3
 72
    17
 73
    13
 74
     0
 42
0.0000000001
 43
0.0000000001
 40
0.0
 40
0.0
 40
0.0
 40
0.0
 40
1.0
 40
1.0
 40
1.0
 40
2.0
 40
2.0
 40
2.0
 40
3.0
 40
3.0
 40
3.0
 40
4.0
 40
4.0
 40
4.0
 40
4.0
 10
0.3562488785895383
 20
-0.1840007723799538
 30
0.0
 10
0.3149619590019974
 20
-0.1840007723799538
 30
0.0
 10
0.2815011079433695
 20
-0.2174684051270816
 30
0.0
 10
0.2815011079433695
 20
-0.2587485430261225
 30
0.0
 10
0.2815011079433695
 20
-0.3000354626136634
 30
0.0
 10
0.3149619590019974
 20
-0.3335030953607913
 30
0.0
 10
0.3562488785895383
 20
-0.3335030953607913
 30
0.0
 10
0.3975357981770792
 20
-0.3335030953607913
 30
0.0
 10
0.4309966492357071
 20
-0.3000354626136634
 30
0.0
 10
0.4309966492357071
 20
-0.2587485430261225
 30
0.0
 10
0.4309966492357071
 20
-0.2174684051270816
 30
0.0
 10
0.3975357981770792
 20
-0.1840007723799538
 30
0.0
 10
0.3562488785895383
 20
-0.1840007723799538
 30
0.0
  0
SPLINE
  5
3F
330
1F
100
AcDbEntity
  8
LAYER_1
 62
   230
100
AcDbSpline
210
0.0
220
0.0
230
1.0
 70
    11
 71
     3
 72
    17
 73
    13
 74
     0
 42
0.0000000001
 43
0.0000000001
 40
0.0
 40
0.0
 40
0.0
 40
0.0
 40
1.0
 40
1.0
 40
1.0
 40
2.0
 40
2.0
 40
2.0
 40
3.0
 40
3.0
 40
3.0
 40
4.0
 40
4.0
 40
4.0
 40
4.0
 10
3.871245499919949
 20
-3.574010874656755
 30
0.0
 10
3.829958580332409
 20
-3.574010874656755
 30
0.0
 10
3.79649772927378
 20
-3.607471725715383
 30
0.0
 10
3.79649772927378
 20
-3.648745081925924
 30
0.0
 10
3.79649772927378
 20
-3.690032001513464
 30
0.0
 10
3.829958580332409
 20
-3.723506415949092
 30
0.0
 10
3.871245499919949
 20
-3.723506415949092
 30
0.0
 10
3.91253241950749
 20
-3.723506415949092
 30
0.0
 10
3.945993270566118
 20
-3.690032001513464
 30
0.0
 10
3.945993270566118
 20
-3.648745081925924
 30
0.0
 10
3.945993270566118
 20
-3.607471725715383
 30
0.0
 10
3.91253241950749
 20
-3.574010874656755
 30
0.0
 10
3.871245499919949
 20
-3.574010874656755
 30
0.0
  0
SPLINE
  5
40
330
1F
100
AcDbEntity
  8
LAYER_1
 62
   230
100
AcDbSpline
210
0.0
220
0.0
230
1.0
 70
    11
 71
     3
 72
    17
 73
    13
 74
     0
 42
0.0000000001
 43
0.0000000001
 40
0.0
 40
0.0
 40
0.0
 40
0.0
 40
1.0
 40
1.0
 40
1.0
 40
2.0
 40
2.0
 40
2.0
 40
3.0
 40
3.0
 40
3.0
 40
4.0
 40
4.0
 40
4.0
 40
4.0
 10
0.3562488785895383
 20
-3.574010874656755
 30
0.0
 10
0.3149619590019974
 20
-3.574010874656755
 30
0.0
 10
0.2815011079433695
 20
-3.607471725715383
 30
0.0
 10
0.2815011079433695
 20
-3.648745081925924
 30
0.0
 10
0.2815011079433695
 20
-3.690032001513464
 30
0.0
 10
0.3149619590019974
 20
-3.723506415949092
 30
0.0
 10
0.3562488785895383
 20
-3.723506415949092
 30
0.0
 10
0.3975357981770792
 20
-3.723506415949092
 30
0.0
 10
0.4309966492357071
 20
-3.690032001513464
 30
0.0
 10
0.4309966492357071
 20
-3.648745081925924
 30
0.0
 10
0.4309966492357071
 20
-3.607471725715383
 30
0.0
 10
0.3975357981770792
 20
-3.574010874656755
 30
0.0
 10
0.3562488785895383
 20
-3.574010874656755
 30
0.0
  0
SPLINE
  5
41
330
1F
100
AcDbEntity
  8
LAYER_1
 62
   140
100
AcDbSpline
210
0.0
220
0.0
230
1.0
 70
    11
 71
     3
 72
    23
 73
    19
 74
     0
 42
0.0000000001
 43
0.0000000001
 40
0.0
 40
0.0
 40
0.0
 40
0.0
 40
1.0
 40
1.0
 40
1.0
 40
2.0
 40
2.0
 40
2.0
 40
3.0
 40
3.0
 40
3.0
 40
4.0
 40
4.0
 40
4.0
 40
5.0
 40
5.0
 40
5.0
 40
6.0
 40
6.0
 40
6.0
 40
6.0
 10
2.062982859988558
 20
-2.901708185216731
 30
0.0
 10
2.062982859988558
 20
-2.901708185216731
 30
0.0
 10
2.062982859988558
 20
-2.350139896140865
 30
0.0
 10
2.062982859988558
 20
-2.350139896140865
 30
0.0
 10
2.062982859988558
 20
-2.3020712880534
 30
0.0
 10
2.101957223797625
 20
-2.263117269309833
 30
0.0
 10
2.149998705131091
 20
-2.263117269309833
 30
0.0
 10
2.198067313218556
 20
-2.263117269309833
 30
0.0
 10
2.237007768585123
 20
-2.3020712880534
 30
0.0
 10
2.237007768585123
 20
-2.350139896140865
 30
0.0
 10
2.237007768585123
 20
-2.350139896140865
 30
0.0
 10
2.237007768585123
 20
-2.901708185216731
 30
0.0
 10
2.237007768585123
 20
-2.901708185216731
 30
0.0
 10
2.237007768585123
 20
-2.949776793304197
 30
0.0
 10
2.198067313218556
 20
-2.988730812047764
 30
0.0
 10
2.149998705131091
 20
-2.988730812047764
 30
0.0
 10
2.101957223797625
 20
-2.988730812047764
 30
0.0
 10
2.062982859988558
 20
-2.949776793304197
 30
0.0
 10
2.062982859988558
 20
-2.901708185216731
 30
0.0
  0
SPLINE
  5
42
330
1F
100
AcDbEntity
  8
LAYER_1
 62
   140
100
AcDbSpline
210
0.0
220
0.0
230
1.0
 70
    11
 71
     3
 72
   131
 73
   127
 74
     0
 42
0.0000000001
 43
0.0000000001
 40
0.0
 40
0.0
 40
0.0
 40
0.0
 40
1.0
 40
1.0
 40
1.0
 40
2.0
 40
2.0
 40
2.0
 40
3.0
 40
3.0
 40
3.0
 40
4.0
 40
4.0
 40
4.0
 40
5.0
 40
5.0
 40
5.0
 40
6.0
 40
6.0
 40
6.0
 40
7.0
 40
7.0
 40
7.0
 40
8.0
 40
8.0
 40
8.0
 40
9.0
 40
9.0
 40
9.0
 40
10.0
 40
10.0
 40
10.0
 40
11.0
 40
11.0
 40
11.0
 40
12.0
 40
12.0
 40
12.0
 40
13.0
 40
13.0
 40
13.0
 40
14.0
 40
14.0
 40
14.0
 40
15.0
 40
15.0
 40
15.0
 40
16.0
 40
16.0
 40
16.0
 40
17.0
 40
17.0
 40
17.0
 40
18.0
 40
18.0
 40
18.0
 40
19.0
 40
19.0
 40
19.0
 40
20.0
 40
20.0
 40
20.0
 40
21.0
 40
21.0
 40
21.0
 40
22.0
 40
22.0
 40
22.0
 40
23.0
 40
23.0
 40
23.0
 40
24.0
 40
24.0
 40
24.0
 40
25.0
 40
25.0
 40
25.0
 40
26.0
 40
26.0
 40
26.0
 40
27.0
 40
27.0
 40
27.0
 40
28.0
 40
28.0
 40
28.0
 40
29.0
 40
29.0
 40
29.0
 40
30.0
 40
30.0
 40
30.0
 40
31.0
 40
31.0
 40
31.0
 40
32.0
 40
32.0
 40
32.0
 40
33.0
 40
33.0
 40
33.0
 40
34.0
 40
34.0
 40
34.0
 40
35.0
 40
35.0
 40
35.0
 40
36.0
 40
36.0
 40
36.0
 40
37.0
 40
37.0
 40
37.0
 40
38.0
 40
38.0
 40
38.0
 40
39.0
 40
39.0
 40
39.0
 40
40.0
 40
40.0
 40
40.0
 40
41.0
 40
41.0
 40
41.0
 40
42.0
 40
42.0
 40
42.0
 40
42.0
 10
2.651056978259519
 20
-3.053238233059046
 30
0.0
 10
2.651056978259519
 20
-3.053238233059046
 30
0.0
 10
2.846518804204345
 20
-3.020360607211412
 30
0.0
 10
2.846518804204345
 20
-3.020360607211412
 30
0.0
 10
2.846518804204345
 20
-3.020360607211412
 30
0.0
 10
2.846518804204345
 20
-2.931683248386398
 30
0.0
 10
2.846518804204345
 20
-2.931683248386398
 30
0.0
 10
2.846518804204345
 20
-2.931683248386398
 30
0.0
 10
2.846518804204345
 20
-2.843005889561384
 30
0.0
 10
2.846518804204345
 20
-2.843005889561384
 30
0.0
 10
2.846518804204345
 20
-2.843005889561384
 30
0.0
 10
2.651070541636519
 20
-2.81012826371375
 30
0.0
 10
2.651070541636519
 20
-2.81012826371375
 30
0.0
 10
2.63838878414166
 20
-2.757583741216334
 30
0.0
 10
2.61766394408589
 20
-2.708199485559883
 30
0.0
 10
2.590279485923194
 20
-2.663318271067382
 30
0.0
 10
2.590279485923194
 20
-2.663318271067382
 30
0.0
 10
2.705215542619916
 20
-2.501886958015178
 30
0.0
 10
2.705215542619916
 20
-2.501886958015178
 30
0.0
 10
2.705215542619916
 20
-2.501886958015178
 30
0.0
 10
2.642512050749614
 20
-2.439169902767875
 30
0.0
 10
2.642512050749614
 20
-2.439169902767875
 30
0.0
 10
2.642512050749614
 20
-2.439169902767875
 30
0.0
 10
2.579808558879311
 20
-2.376452847520572
 30
0.0
 10
2.579808558879311
 20
-2.376452847520572
 30
0.0
 10
2.579808558879311
 20
-2.376452847520572
 30
0.0
 10
2.418404372581106
 20
-2.491388904217294
 30
0.0
 10
2.418404372581106
 20
-2.491388904217294
 30
0.0
 10
2.386747450663458
 20
-2.472047528615509
 30
0.0
 10
2.352825444786835
 20
-2.456042743755687
 30
0.0
 10
2.317153763277232
 20
-2.443835704455823
 30
0.0
 10
2.317153763277232
 20
-2.443835704455823
 30
0.0
 10
2.317113073146232
 20
-2.683256435257161
 30
0.0
 10
2.317113073146232
 20
-2.683256435257161
 30
0.0
 10
2.396919983413345
 20
-2.737021661684563
 30
0.0
 10
2.449301745386762
 20
-2.828208245254549
 30
0.0
 10
2.449301745386762
 20
-2.931683248386398
 30
0.0
 10
2.449301745386762
 20
-3.09698012388356
 30
0.0
 10
2.315309144005252
 20
-3.23097272526507
 30
0.0
 10
2.149998705131091
 20
-3.23097272526507
 30
0.0
 10
1.984722174699429
 20
-3.23097272526507
 30
0.0
 10
1.850716009940919
 20
-3.09698012388356
 30
0.0
 10
1.850716009940919
 20
-2.931683248386398
 30
0.0
 10
1.850716009940919
 20
-2.827842034075553
 30
0.0
 10
1.903586053486331
 20
-2.73637061958857
 30
0.0
 10
1.983881245325438
 20
-2.682686773423167
 30
0.0
 10
1.983881245325438
 20
-2.682686773423167
 30
0.0
 10
1.98366423129344
 20
-2.443659380554825
 30
0.0
 10
1.98366423129344
 20
-2.443659380554825
 30
0.0
 10
1.94772128224384
 20
-2.455907109985689
 30
0.0
 10
1.91357548064672
 20
-2.47199327510751
 30
0.0
 10
1.881715108074074
 20
-2.491470284479294
 30
0.0
 10
1.881715108074074
 20
-2.491470284479294
 30
0.0
 10
1.72020241475987
 20
-2.376452847520572
 30
0.0
 10
1.72020241475987
 20
-2.376452847520572
 30
0.0
 10
1.72020241475987
 20
-2.376452847520572
 30
0.0
 10
1.657492141201068
 20
-2.439169902767875
 30
0.0
 10
1.657492141201068
 20
-2.439169902767875
 30
0.0
 10
1.657492141201068
 20
-2.439169902767875
 30
0.0
 10
1.594795431019265
 20
-2.501873394638177
 30
0.0
 10
1.594795431019265
 20
-2.501873394638177
 30
0.0
 10
1.594795431019265
 20
-2.501873394638177
 30
0.0
 10
1.709785741223986
 20
-2.663399651329382
 30
0.0
 10
1.709785741223986
 20
-2.663399651329382
 30
0.0
 10
1.682394501372791
 20
-2.708253739067882
 30
0.0
 10
1.661656097940021
 20
-2.757610867970334
 30
0.0
 10
1.648967558756663
 20
-2.81011470033675
 30
0.0
 10
1.648967558756663
 20
-2.81011470033675
 30
0.0
 10
1.453485387746336
 20
-2.843005889561384
 30
0.0
 10
1.453485387746336
 20
-2.843005889561384
 30
0.0
 10
1.453485387746336
 20
-2.843005889561384
 30
0.0
 10
1.453485387746336
 20
-2.931683248386398
 30
0.0
 10
1.453485387746336
 20
-2.931683248386398
 30
0.0
 10
1.453485387746336
 20
-2.931683248386398
 30
0.0
 10
1.453485387746336
 20
-3.020360607211412
 30
0.0
 10
1.453485387746336
 20
-3.020360607211412
 30
0.0
 10
1.453485387746336
 20
-3.020360607211412
 30
0.0
 10
1.648967558756663
 20
-3.053238233059046
 30
0.0
 10
1.648967558756663
 20
-3.053238233059046
 30
0.0
 10
1.661656097940021
 20
-3.105755628802462
 30
0.0
 10
1.682394501372791
 20
-3.155112757704913
 30
0.0
 10
1.709785741223986
 20
-3.199966845443414
 30
0.0
 10
1.709785741223986
 20
-3.199966845443414
 30
0.0
 10
1.594795431019265
 20
-3.361479538757618
 30
0.0
 10
1.594795431019265
 20
-3.361479538757618
 30
0.0
 10
1.594795431019265
 20
-3.361479538757618
 30
0.0
 10
1.657492141201068
 20
-3.424196594004921
 30
0.0
 10
1.657492141201068
 20
-3.424196594004921
 30
0.0
 10
1.657492141201068
 20
-3.424196594004921
 30
0.0
 10
1.72020241475987
 20
-3.486900085875224
 30
0.0
 10
1.72020241475987
 20
-3.486900085875224
 30
0.0
 10
1.72020241475987
 20
-3.486900085875224
 30
0.0
 10
1.881715108074074
 20
-3.371896212293502
 30
0.0
 10
1.881715108074074
 20
-3.371896212293502
 30
0.0
 10
1.926569195812575
 20
-3.399307797210198
 30
0.0
 10
1.975939888092026
 20
-3.420019073888967
 30
0.0
 10
2.028443720458442
 20
-3.432714394760826
 30
0.0
 10
2.028443720458442
 20
-3.432714394760826
 30
0.0
 10
2.061321346306077
 20
-3.628189784082652
 30
0.0
 10
2.061321346306077
 20
-3.628189784082652
 30
0.0
 10
2.061321346306077
 20
-3.628189784082652
 30
0.0
 10
2.149998705131091
 20
-3.628189784082652
 30
0.0
 10
2.149998705131091
 20
-3.628189784082652
 30
0.0
 10
2.149998705131091
 20
-3.628189784082652
 30
0.0
 10
2.238689627333105
 20
-3.628189784082652
 30
0.0
 10
2.238689627333105
 20
-3.628189784082652
 30
0.0
 10
2.238689627333105
 20
-3.628189784082652
 30
0.0
 10
2.271580816557738
 20
-3.432714394760826
 30
0.0
 10
2.271580816557738
 20
-3.432714394760826
 30
0.0
 10
2.324071085547155
 20
-3.420019073888967
 30
0.0
 10
2.373441777826606
 20
-3.399307797210198
 30
0.0
 10
2.418295865565107
 20
-3.371896212293502
 30
0.0
 10
2.418295865565107
 20
-3.371896212293502
 30
0.0
 10
2.579808558879311
 20
-3.486900085875224
 30
0.0
 10
2.579808558879311
 20
-3.486900085875224
 30
0.0
 10
2.579808558879311
 20
-3.486900085875224
 30
0.0
 10
2.642512050749614
 20
-3.424196594004921
 30
0.0
 10
2.642512050749614
 20
-3.424196594004921
 30
0.0
 10
2.642512050749614
 20
-3.424196594004921
 30
0.0
 10
2.705215542619916
 20
-3.361479538757618
 30
0.0
 10
2.705215542619916
 20
-3.361479538757618
 30
0.0
 10
2.705215542619916
 20
-3.361479538757618
 30
0.0
 10
2.590238795792195
 20
-3.199966845443414
 30
0.0
 10
2.590238795792195
 20
-3.199966845443414
 30
0.0
 10
2.61762325395489
 20
-3.155112757704913
 30
0.0
 10
2.63836165738766
 20
-3.105755628802462
 30
0.0
 10
2.651056978259519
 20
-3.053238233059046
 30
0.0
  0
SPLINE
  5
43
330
1F
100
AcDbEntity
  8
LAYER_1
 62
   230
100
AcDbSpline
210
0.0
220
0.0
230
1.0
 70
    11
 71
     3
 72
    17
 73
    13
 74
     0
 42
0.0000000001
 43
0.0000000001
 40
0.0
 40
0.0
 40
0.0
 40
0.0
 40
1.0
 40
1.0
 40
1.0
 40
2.0
 40
2.0
 40
2.0
 40
3.0
 40
3.0
 40
3.0
 40
4.0
 40
4.0
 40
4.0
 40
4.0
 10
3.13652414952662
 20
-2.925973066669461
 30
0.0
 10
3.13652414952662
 20
-2.960491861134078
 30
0.0
 10
3.108542902775931
 20
-2.988486671261766
 30
0.0
 10
3.074024108311315
 20
-2.988486671261766
 30
0.0
 10
3.039505313846699
 20
-2.988486671261766
 30
0.0
 10
3.01152406709601
 20
-2.960491861134078
 30
0.0
 10
3.01152406709601
 20
-2.925973066669461
 30
0.0
 10
3.01152406709601
 20
-2.891454272204845
 30
0.0
 10
3.039505313846699
 20
-2.863473025454156
 30
0.0
 10
3.074024108311315
 20
-2.863473025454156
 30
0.0
 10
3.108542902775931
 20
-2.863473025454156
 30
0.0
 10
3.13652414952662
 20
-2.891454272204845
 30
0.0
 10
3.13652414952662
 20
-2.925973066669461
 30
0.0
  0
SPLINE
  5
44
330
1F
100
AcDbEntity
  8
LAYER_1
 62
   230
100
AcDbSpline
210
0.0
220
0.0
230
1.0
 70
    11
 71
     3
 72
    17
 73
    13
 74
     0
 42
0.0000000001
 43
0.0000000001
 40
0.0
 40
0.0
 40
0.0
 40
0.0
 40
1.0
 40
1.0
 40
1.0
 40
2.0
 40
2.0
 40
2.0
 40
3.0
 40
3.0
 40
3.0
 40
4.0
 40
4.0
 40
4.0
 40
4.0
 10
3.274029665551091
 20
-2.863473025454156
 30
0.0
 10
3.239510871086475
 20
-2.863473025454156
 30
0.0
 10
3.211529624335786
 20
-2.891454272204845
 30
0.0
 10
3.211529624335786
 20
-2.925973066669461
 30
0.0
 10
3.211529624335786
 20
-2.960491861134078
 30
0.0
 10
3.239510871086475
 20
-2.988486671261766
 30
0.0
 10
3.274029665551091
 20
-2.988486671261766
 30
0.0
 10
3.308548460015707
 20
-2.988486671261766
 30
0.0
 10
3.336529706766396
 20
-2.960491861134078
 30
0.0
 10
3.336529706766396
 20
-2.925973066669461
 30
0.0
 10
3.336529706766396
 20
-2.891454272204845
 30
0.0
 10
3.308548460015707
 20
-2.863473025454156
 30
0.0
 10
3.274029665551091
 20
-2.863473025454156
 30
0.0
  0
SPLINE
  5
45
330
1F
100
AcDbEntity
  8
LAYER_1
 62
   230
100
AcDbSpline
210
0.0
220
0.0
230
1.0
 70
    11
 71
     3
 72
    17
 73
    13
 74
     0
 42
0.0000000001
 43
0.0000000001
 40
0.0
 40
0.0
 40
0.0
 40
0.0
 40
1.0
 40
1.0
 40
1.0
 40
2.0
 40
2.0
 40
2.0
 40
3.0
 40
3.0
 40
3.0
 40
4.0
 40
4.0
 40
4.0
 40
4.0
 10
3.474021659413867
 20
-2.863473025454156
 30
0.0
 10
3.439502864949251
 20
-2.863473025454156
 30
0.0
 10
3.411521618198562
 20
-2.891454272204845
 30
0.0
 10
3.411521618198562
 20
-2.925973066669461
 30
0.0
 10
3.411521618198562
 20
-2.960491861134078
 30
0.0
 10
3.439502864949251
 20
-2.988486671261766
 30
0.0
 10
3.474021659413867
 20
-2.988486671261766
 30
0.0
 10
3.508540453878483
 20
-2.988486671261766
 30
0.0
 10
3.536521700629172
 20
-2.960491861134078
 30
0.0
 10
3.536521700629172
 20
-2.925973066669461
 30
0.0
 10
3.536521700629172
 20
-2.891454272204845
 30
0.0
 10
3.508540453878483
 20
-2.863473025454156
 30
0.0
 10
3.474021659413867
 20
-2.863473025454156
 30
0.0
  0
SPLINE
  5
46
330
1F
100
AcDbEntity
  8
LAYER_1
 62
   230
100
AcDbSpline
210
0.0
220
0.0
230
1.0
 70
    11
 71
     3
 72
    17
 73
    13
 74
     0
 42
0.0000000001
 43
0.0000000001
 40
0.0
 40
0.0
 40
0.0
 40
0.0
 40
1.0
 40
1.0
 40
1.0
 40
2.0
 40
2.0
 40
2.0
 40
3.0
 40
3.0
 40
3.0
 40
4.0
 40
4.0
 40
4.0
 40
4.0
 10
3.674027216653643
 20
-2.863473025454156
 30
0.0
 10
3.639508422189027
 20
-2.863473025454156
 30
0.0
 10
3.611527175438338
 20
-2.891454272204845
 30
0.0
 10
3.611527175438338
 20
-2.925973066669461
 30
0.0
 10
3.611527175438338
 20
-2.960491861134078
 30
0.0
 10
3.639508422189027
 20
-2.988486671261766
 30
0.0
 10
3.674027216653643
 20
-2.988486671261766
 30
0.0
 10
3.708546011118259
 20
-2.988486671261766
 30
0.0
 10
3.736527257868948
 20
-2.960491861134078
 30
0.0
 10
3.736527257868948
 20
-2.925973066669461
 30
0.0
 10
3.736527257868948
 20
-2.891454272204845
 30
0.0
 10
3.708546011118259
 20
-2.863473025454156
 30
0.0
 10
3.674027216653643
 20
-2.863473025454156
 30
0.0
  0
SPLINE
  5
47
330
1F
100
AcDbEntity
  8
LAYER_1
 62
   230
100
AcDbSpline
210
0.0
220
0.0
230
1.0
 70
    11
 71
     3
 72
    17
 73
    13
 74
     0
 42
0.0000000001
 43
0.0000000001
 40
0.0
 40
0.0
 40
0.0
 40
0.0
 40
1.0
 40
1.0
 40
1.0
 40
2.0
 40
2.0
 40
2.0
 40
3.0
 40
3.0
 40
3.0
 40
4.0
 40
4.0
 40
4.0
 40
4.0
 10
3.174026886931203
 20
-2.663467468214381
 30
0.0
 10
3.139508092466587
 20
-2.663467468214381
 30
0.0
 10
3.111526845715898
 20
-2.691462278342069
 30
0.0
 10
3.111526845715898
 20
-2.725967509429686
 30
0.0
 10
3.111526845715898
 20
-2.760499867271302
 30
0.0
 10
3.139508092466587
 20
-2.78849467739899
 30
0.0
 10
3.174026886931203
 20
-2.78849467739899
 30
0.0
 10
3.208545681395819
 20
-2.78849467739899
 30
0.0
 10
3.236526928146508
 20
-2.760499867271302
 30
0.0
 10
3.236526928146508
 20
-2.725967509429686
 30
0.0
 10
3.236526928146508
 20
-2.691462278342069
 30
0.0
 10
3.208545681395819
 20
-2.663467468214381
 30
0.0
 10
3.174026886931203
 20
-2.663467468214381
 30
0.0
  0
SPLINE
  5
48
330
1F
100
AcDbEntity
  8
LAYER_1
 62
   230
100
AcDbSpline
210
0.0
220
0.0
230
1.0
 70
    11
 71
     3
 72
    17
 73
    13
 74
     0
 42
0.0000000001
 43
0.0000000001
 40
0.0
 40
0.0
 40
0.0
 40
0.0
 40
1.0
 40
1.0
 40
1.0
 40
2.0
 40
2.0
 40
2.0
 40
3.0
 40
3.0
 40
3.0
 40
4.0
 40
4.0
 40
4.0
 40
4.0
 10
3.374018880793979
 20
-2.663467468214381
 30
0.0
 10
3.339500086329363
 20
-2.663467468214381
 30
0.0
 10
3.311518839578674
 20
-2.691462278342069
 30
0.0
 10
3.311518839578674
 20
-2.725967509429686
 30
0.0
 10
3.311518839578674
 20
-2.760499867271302
 30
0.0
 10
3.339500086329363
 20
-2.78849467739899
 30
0.0
 10
3.374018880793979
 20
-2.78849467739899
 30
0.0
 10
3.408537675258595
 20
-2.78849467739899
 30
0.0
 10
3.436518922009284
 20
-2.760499867271302
 30
0.0
 10
3.436518922009284
 20
-2.725967509429686
 30
0.0
 10
3.436518922009284
 20
-2.691462278342069
 30
0.0
 10
3.408537675258595
 20
-2.663467468214381
 30
0.0
 10
3.374018880793979
 20
-2.663467468214381
 30
0.0
  0
SPLINE
  5
49
330
1F
100
AcDbEntity
  8
LAYER_1
 62
   230
100
AcDbSpline
210
0.0
220
0.0
230
1.0
 70
    11
 71
     3
 72
    17
 73
    13
 74
     0
 42
0.0000000001
 43
0.0000000001
 40
0.0
 40
0.0
 40
0.0
 40
0.0
 40
1.0
 40
1.0
 40
1.0
 40
2.0
 40
2.0
 40
2.0
 40
3.0
 40
3.0
 40
3.0
 40
4.0
 40
4.0
 40
4.0
 40
4.0
 10
3.574024438033755
 20
-2.663467468214381
 30
0.0
 10
3.539505643569139
 20
-2.663467468214381
 30
0.0
 10
3.51152439681845
 20
-2.691462278342069
 30
0.0
 10
3.51152439681845
 20
-2.725967509429686
 30
0.0
 10
3.51152439681845
 20
-2.760499867271302
 30
0.0
 10
3.539505643569139
 20
-2.78849467739899
 30
0.0
 10
3.574024438033755
 20
-2.78849467739899
 30
0.0
 10
3.608543232498371
 20
-2.78849467739899
 30
0.0
 10
3.63652447924906
 20
-2.760499867271302
 30
0.0
 10
3.63652447924906
 20
-2.725967509429686
 30
0.0
 10
3.63652447924906
 20
-2.691462278342069
 30
0.0
 10
3.608543232498371
 20
-2.663467468214381
 30
0.0
 10
3.574024438033755
 20
-2.663467468214381
 30
0.0
  0
SPLINE
  5
4A
330
1F
100
AcDbEntity
  8
LAYER_1
 62
   230
100
AcDbSpline
210
0.0
220
0.0
230
1.0
 70
    11
 71
     3
 72
    17
 73
    13
 74
     0
 42
0.0000000001
 43
0.0000000001
 40
0.0
 40
0.0
 40
0.0
 40
0.0
 40
1.0
 40
1.0
 40
1.0
 40
2.0
 40
2.0
 40
2.0
 40
3.0
 40
3.0
 40
3.0
 40
4.0
 40
4.0
 40
4.0
 40
4.0
 10
3.174026886931203
 20
-3.063478582693932
 30
0.0
 10
3.139508092466587
 20
-3.063478582693932
 30
0.0
 10
3.111526845715898
 20
-3.091446266067621
 30
0.0
 10
3.111526845715898
 20
-3.125978623909237
 30
0.0
 10
3.111526845715898
 20
-3.160483854996853
 30
0.0
 10
3.139508092466587
 20
-3.188478665124542
 30
0.0
 10
3.174026886931203
 20
-3.188478665124542
 30
0.0
 10
3.208545681395819
 20
-3.188478665124542
 30
0.0
 10
3.236526928146508
 20
-3.160483854996853
 30
0.0
 10
3.236526928146508
 20
-3.125978623909237
 30
0.0
 10
3.236526928146508
 20
-3.091446266067621
 30
0.0
 10
3.208545681395819
 20
-3.063478582693932
 30
0.0
 10
3.174026886931203
 20
-3.063478582693932
 30
0.0
  0
SPLINE
  5
4B
330
1F
100
AcDbEntity
  8
LAYER_1
 62
   230
100
AcDbSpline
210
0.0
220
0.0
230
1.0
 70
    11
 71
     3
 72
    17
 73
    13
 74
     0
 42
0.0000000001
 43
0.0000000001
 40
0.0
 40
0.0
 40
0.0
 40
0.0
 40
1.0
 40
1.0
 40
1.0
 40
2.0
 40
2.0
 40
2.0
 40
3.0
 40
3.0
 40
3.0
 40
4.0
 40
4.0
 40
4.0
 40
4.0
 10
3.374018880793979
 20
-3.063478582693932
 30
0.0
 10
3.339500086329363
 20
-3.063478582693932
 30
0.0
 10
3.311518839578674
 20
-3.091446266067621
 30
0.0
 10
3.311518839578674
 20
-3.125978623909237
 30
0.0
 10
3.311518839578674
 20
-3.160483854996853
 30
0.0
 10
3.339500086329363
 20
-3.188478665124542
 30
0.0
 10
3.374018880793979
 20
-3.188478665124542
 30
0.0
 10
3.408537675258595
 20
-3.188478665124542
 30
0.0
 10
3.436518922009284
 20
-3.160483854996853
 30
0.0
 10
3.436518922009284
 20
-3.125978623909237
 30
0.0
 10
3.436518922009284
 20
-3.091446266067621
 30
0.0
 10
3.408537675258595
 20
-3.063478582693932
 30
0.0
 10
3.374018880793979
 20
-3.063478582693932
 30
0.0
  0
SPLINE
  5
4C
330
1F
100
AcDbEntity
  8
LAYER_1
 62
   230
100
AcDbSpline
210
0.0
220
0.0
230
1.0
 70
    11
 71
     3
 72
    17
 73
    13
 74
     0
 42
0.0000000001
 43
0.0000000001
 40
0.0
 40
0.0
 40
0.0
 40
0.0
 40
1.0
 40
1.0
 40
1.0
 40
2.0
 40
2.0
 40
2.0
 40
3.0
 40
3.0
 40
3.0
 40
4.0
 40
4.0
 40
4.0
 40
4.0
 10
3.574024438033755
 20
-3.063478582693932
 30
0.0
 10
3.539505643569139
 20
-3.063478582693932
 30
0.0
 10
3.51152439681845
 20
-3.091446266067621
 30
0.0
 10
3.51152439681845
 20
-3.125978623909237
 30
0.0
 10
3.51152439681845
 20
-3.160483854996853
 30
0.0
 10
3.539505643569139
 20
-3.188478665124542
 30
0.0
 10
3.574024438033755
 20
-3.188478665124542
 30
0.0
 10
3.608543232498371
 20
-3.188478665124542
 30
0.0
 10
3.63652447924906
 20
-3.160483854996853
 30
0.0
 10
3.63652447924906
 20
-3.125978623909237
 30
0.0
 10
3.63652447924906
 20
-3.091446266067621
 30
0.0
 10
3.608543232498371
 20
-3.063478582693932
 30
0.0
 10
3.574024438033755
 20
-3.063478582693932
 30
0.0
  0
ENDSEC
  0
SECTION
  2
OBJECTS
  0
DICTIONARY
  5
C
330
0
100
AcDbDictionary
  3
ACAD_GROUP
350
D
  3
ACAD_LAYOUT
350
1A
  3
ACAD_MLINESTYLE
350
17
  3
ACAD_PLOTSETTINGS
350
19
  3
ACAD_TABLESTYLE
350
6D
  3
ACAD_VISUALSTYLE
350
2A
  3
ACDBHEADERROUNDTRIPXREC
350
4D
  0
DICTIONARY
  5
D
102
{ACAD_REACTORS
330
C
102
}
330
C
100
AcDbDictionary
  0
DICTIONARY
  5
1A
102
{ACAD_REACTORS
330
C
102
}
330
C
100
AcDbDictionary
  0
DICTIONARY
  5
17
102
{ACAD_REACTORS
330
C
102
}
330
C
100
AcDbDictionary
  3
STANDARD
350
18
  0
DICTIONARY
  5
19
102
{ACAD_REACTORS
330
C
102
}
330
C
100
AcDbDictionary
  0
DICTIONARY
  5
6D
102
{ACAD_REACTORS
330
C
102
}
330
C
100
AcDbDictionary
  0
DICTIONARY
  5
2A
102
{ACAD_REACTORS
330
C
102
}
330
C
100
AcDbDictionary
  3
2DWIREFRAME
350
2F
  3
3D_HIDDEN
350
31
  3
3DWIREFRAME
350
30
  3
BASIC
350
32
  3
BRIGHTEN
350
36
  3
COLORCHANGE
350
3A
  3
CONCEPTUAL
350
34
  3
DIM
350
35
  3
FACEPATTERN
350
39
  3
FLAT
350
2B
  3
FLATWITHEDGES
350
2C
  3
GOURAUD
350
2D
  3
GOURAUDWITHEDGES
350
2E
  3
LINEPATTERN
350
38
  3
REALISTIC
350
33
  3
THICKEN
350
37
  0
DICTIONARY
  5
4D
102
{ACAD_REACTORS
330
C
102
}
330
C
100
AcDbDictionary
  3
CEPSNTYPE
350
56
  3
DIMSTYLEDATA
350
6C
  3
FINGERPRINTGUID
350
57
  3
HYPERLINKBASE
350
50
  3
INSUNITS
350
55
  3
LAYOUTDICT
350
52
  3
LWETCUNION
350
54
  3
PLOTSETDICT
350
53
  3
PSVPSCALE
350
59
  3
PUCSBASE
350
5C
  3
PUCSORGBACK
350
62
  3
PUCSORGBOTTOM
350
5E
  3
PUCSORGFRONT
350
61
  3
PUCSORGLEFT
350
5F
  3
PUCSORGRIGHT
350
60
  3
PUCSORGTOP
350
5D
  3
PUCSORTHOREF
350
5A
  3
PUCSORTHOVIEW
350
5B
  3
STYLESHEET
350
51
  3
TSTACKALIGN
350
4E
  3
TSTACKSIZE
350
4F
  3
UCSBASE
350
65
  3
UCSORGBACK
350
6B
  3
UCSORGBOTTOM
350
67
  3
UCSORGFRONT
350
6A
  3
UCSORGLEFT
350
68
  3
UCSORGRIGHT
350
69
  3
UCSORGTOP
350
66
  3
UCSORTHOREF
350
63
  3
UCSORTHOVIEW
350
64
  3
VERSIONGUID
350
58
  0
MLINESTYLE
  5
18
102
{ACAD_REACTORS
330
17
102
}
330
17
100
AcDbMlineStyle
  2
Standard
 70
     0
  3

 62
   256
 51
90.0
 52
90.0
 71
     2
 49
0.5
 62
   256
  6
BYLAYER
 49
-0.5
 62
   256
  6
BYLAYER
  0
VISUALSTYLE
  5
2F
102
{ACAD_REACTORS
330
2A
102
}
330
2A
100
AcDbVisualStyle
  2
2dWireframe
 70
     4
 71
     0
 72
     2
 73
     0
 90
        0
 40
-0.6
 41
-30.0
 62
     5
 63
     7
 74
     1
 91
        4
 64
     7
 65
   257
 75
     1
175
     1
 42
1.0
 92
        0
 66
   257
 43
1.0
 76
     1
 77
     6
 78
     2
 67
     7
 79
     5
170
     0
171
     0
290
     0
174
     0
 93
        1
 44
0.0
173
     0
291
     0
 45
0.0
1001
ACAD
1000
AcDbSavedByObjectVersion
1070
     0
  0
VISUALSTYLE
  5
31
102
{ACAD_REACTORS
330
2A
102
}
330
2A
100
AcDbVisualStyle
  2
3D Hidden
 70
     6
 71
     1
 72
     2
 73
     2
 90
        0
 40
-0.6
 41
-30.0
 62
     5
 63
     7
 74
     2
 91
        2
 64
     7
 65
   257
 75
     2
175
     1
 42
40.0
 92
        0
 66
   257
 43
1.0
 76
     1
 77
     6
 78
     2
 67
     7
 79
     3
170
     0
171
     0
290
     0
174
     0
 93
        1
 44
0.0
173
     0
291
     0
 45
0.0
1001
ACAD
1000
AcDbSavedByObjectVersion
1070
     0
  0
VISUALSTYLE
  5
30
102
{ACAD_REACTORS
330
2A
102
}
330
2A
100
AcDbVisualStyle
  2
3dWireframe
 70
     5
 71
     0
 72
     2
 73
     0
 90
        0
 40
-0.6
 41
-30.0
 62
     5
 63
     7
 74
     1
 91
        4
 64
     7
 65
   257
 75
     1
175
     1
 42
1.0
 92
        0
 66
   257
 43
1.0
 76
     1
 77
     6
 78
     2
 67
     7
 79
     5
170
     0
171
     0
290
     0
174
     0
 93
        1
 44
0.0
173
     0
291
     0
 45
0.0
1001
ACAD
1000
AcDbSavedByObjectVersion
1070
     0
  0
VISUALSTYLE
  5
32
102
{ACAD_REACTORS
330
2A
102
}
330
2A
100
AcDbVisualStyle
  2
Basic
 70
     7
 71
     1
 72
     0
 73
     1
 90
        0
 40
-0.6
 41
-30.0
 62
     5
 63
     7
 74
     0
 91
        4
 64
     7
 65
   257
 75
     1
175
     1
 42
1.0
 92
        8
 66
     7
 43
1.0
 76
     1
 77
     6
 78
     2
 67
     7
 79
     5
170
     0
171
     0
290
     0
174
     0
 93
        1
 44
0.0
173
     0
291
     1
 45
0.0
1001
ACAD
1000
AcDbSavedByObjectVersion
1070
     0
  0
VISUALSTYLE
  5
36
102
{ACAD_REACTORS
330
2A
102
}
330
2A
100
AcDbVisualStyle
  2
Brighten
 70
    12
 71
     2
 72
     2
 73
     0
 90
        0
 40
-0.6
 41
-30.0
 62
     5
 63
     7
 74
     1
 91
        4
 64
     7
 65
   257
 75
     1
175
     1
 42
1.0
 92
        8
 66
     7
 43
1.0
 76
     1
 77
     6
 78
     2
 67
     7
 79
     5
170
     0
171
     0
290
     0
174
     0
 93
        1
 44
50.0
173
     0
291
     1
 45
0.0
1001
ACAD
1000
AcDbSavedByObjectVersion
1070
     0
  0
VISUALSTYLE
  5
3A
102
{ACAD_REACTORS
330
2A
102
}
330
2A
100
AcDbVisualStyle
  2
ColorChange
 70
    16
 71
     2
 72
     2
 73
     3
 90
        0
 40
-0.6
 41
-30.0
 62
     5
 63
     8
 74
     1
 91
        4
 64
     7
 65
   257
 75
     1
175
     1
 42
1.0
 92
        8
 66
     8
 43
1.0
 76
     1
 77
     6
 78
     2
 67
     7
 79
     5
170
     0
171
     0
290
     0
174
     0
 93
        1
 44
0.0
173
     0
291
     1
 45
0.0
1001
ACAD
1000
AcDbSavedByObjectVersion
1070
     0
  0
VISUALSTYLE
  5
34
102
{ACAD_REACTORS
330
2A
102
}
330
2A
100
AcDbVisualStyle
  2
Conceptual
 70
     9
 71
     3
 72
     2
 73
     0
 90
        0
 40
-0.6
 41
-30.0
 62
     5
 63
     7
 74
     2
 91
        2
 64
     7
 65
   257
 75
     1
175
     1
 42
40.0
 92
        8
 66
     7
 43
1.0
 76
     1
 77
     6
 78
     2
 67
     7
 79
     3
170
     0
171
     0
290
     0
174
     0
 93
        1
 44
0.0
173
     0
291
     0
 45
0.0
1001
ACAD
1000
AcDbSavedByObjectVersion
1070
     0
  0
VISUALSTYLE
  5
35
102
{ACAD_REACTORS
330
2A
102
}
330
2A
100
AcDbVisualStyle
  2
Dim
 70
    11
 71
     2
 72
     2
 73
     0
 90
        0
 40
-0.6
 41
-30.0
 62
     5
 63
     7
 74
     1
 91
        4
 64
     7
 65
   257
 75
     1
175
     1
 42
1.0
 92
        8
 66
     7
 43
1.0
 76
     1
 77
     6
 78
     2
 67
     7
 79
     5
170
     0
171
     0
290
     0
174
     0
 93
        1
 44
-50.0
173
     0
291
     1
 45
0.0
1001
ACAD
1000
AcDbSavedByObjectVersion
1070
     0
  0
VISUALSTYLE
  5
39
102
{ACAD_REACTORS
330
2A
102
}
330
2A
100
AcDbVisualStyle
  2
Facepattern
 70
    15
 71
     2
 72
     2
 73
     0
 90
        0
 40
-0.6
 41
-30.0
 62
     5
 63
     7
 74
     1
 91
        4
 64
     7
 65
   257
 75
     1
175
     1
 42
1.0
 92
        8
 66
     7
 43
1.0
 76
     1
 77
     6
 78
     2
 67
     7
 79
     5
170
     0
171
     0
290
     0
174
     0
 93
        1
 44
0.0
173
     0
291
     1
 45
0.0
1001
ACAD
1000
AcDbSavedByObjectVersion
1070
     0
  0
VISUALSTYLE
  5
2B
102
{ACAD_REACTORS
330
2A
102
}
330
2A
100
AcDbVisualStyle
  2
Flat
 70
     0
 71
     2
 72
     1
 73
     1
 90
        2
 40
-0.6
 41
30.0
 62
     5
 63
     7
 74
     0
 91
        4
 64
     7
 65
   257
 75
     1
175
     1
 42
1.0
 92
        8
 66
     7
 43
1.0
 76
     1
 77
     6
 78
     2
 67
     7
 79
     5
170
     0
171
     0
290
     0
174
     0
 93
       13
 44
0.0
173
     0
291
     1
 45
0.0
1001
ACAD
1000
AcDbSavedByObjectVersion
1070
     0
  0
VISUALSTYLE
  5
2C
102
{ACAD_REACTORS
330
2A
102
}
330
2A
100
AcDbVisualStyle
  2
FlatWithEdges
 70
     1
 71
     2
 72
     1
 73
     1
 90
        2
 40
-0.6
 41
30.0
 62
     5
 63
     7
 74
     1
 91
        4
 64
     7
 65
   257
 75
     1
175
     1
 42
1.0
 92
        0
 66
   257
 43
1.0
 76
     1
 77
     6
 78
     2
 67
     7
 79
     5
170
     0
171
     0
290
     0
174
     0
 93
       13
 44
0.0
173
     0
291
     1
 45
0.0
1001
ACAD
1000
AcDbSavedByObjectVersion
1070
     0
  0
VISUALSTYLE
  5
2D
102
{ACAD_REACTORS
330
2A
102
}
330
2A
100
AcDbVisualStyle
  2
Gouraud
 70
     2
 71
     2
 72
     2
 73
     1
 90
        2
 40
-0.6
 41
30.0
 62
     5
 63
     7
 74
     0
 91
        4
 64
     7
 65
   257
 75
     1
175
     1
 42
1.0
 92
        0
 66
     7
 43
1.0
 76
     1
 77
     6
 78
     2
 67
     7
 79
     5
170
     0
171
     0
290
     0
174
     0
 93
       13
 44
0.0
173
     0
291
     1
 45
0.0
1001
ACAD
1000
AcDbSavedByObjectVersion
1070
     0
  0
VISUALSTYLE
  5
2E
102
{ACAD_REACTORS
330
2A
102
}
330
2A
100
AcDbVisualStyle
  2
GouraudWithEdges
 70
     3
 71
     2
 72
     2
 73
     1
 90
        2
 40
-0.6
 41
30.0
 62
     5
 63
     7
 74
     1
 91
        4
 64
     7
 65
   257
 75
     1
175
     1
 42
1.0
 92
        0
 66
   257
 43
1.0
 76
     1
 77
     6
 78
     2
 67
     7
 79
     5
170
     0
171
     0
290
     0
174
     0
 93
       13
 44
0.0
173
     0
291
     1
 45
0.0
1001
ACAD
1000
AcDbSavedByObjectVersion
1070
     0
  0
VISUALSTYLE
  5
38
102
{ACAD_REACTORS
330
2A
102
}
330
2A
100
AcDbVisualStyle
  2
Linepattern
 70
    14
 71
     2
 72
     2
 73
     0
 90
        0
 40
-0.6
 41
-30.0
 62
     5
 63
     7
 74
     1
 91
        4
 64
     7
 65
   257
 75
     7
175
     7
 42
1.0
 92
        8
 66
     7
 43
1.0
 76
     1
 77
     6
 78
     2
 67
     7
 79
     5
170
     0
171
     0
290
     0
174
     0
 93
        1
 44
0.0
173
     0
291
     1
 45
0.0
1001
ACAD
1000
AcDbSavedByObjectVersion
1070
     0
  0
VISUALSTYLE
  5
33
102
{ACAD_REACTORS
330
2A
102
}
330
2A
100
AcDbVisualStyle
  2
Realistic
 70
     8
 71
     2
 72
     2
 73
     0
 90
        0
 40
-0.6
 41
-30.0
 62
     5
 63
     7
 74
     1
 91
        0
 64
     7
 65
   257
 75
     1
175
     1
 42
1.0
 92
        8
 66
     8
 43
1.0
 76
     1
 77
     6
 78
     2
 67
     7
 79
     5
170
     0
171
     0
290
     0
174
     0
 93
       13
 44
0.0
173
     0
291
     0
 45
0.0
1001
ACAD
1000
AcDbSavedByObjectVersion
1070
     0
  0
VISUALSTYLE
  5
37
102
{ACAD_REACTORS
330
2A
102
}
330
2A
100
AcDbVisualStyle
  2
Thicken
 70
    13
 71
     2
 72
     2
 73
     0
 90
        0
 40
-0.6
 41
-30.0
 62
     5
 63
     7
 74
     1
 91
        4
 64
     7
 65
   257
 75
     1
175
     1
 42
1.0
 92
       12
 66
     7
 43
1.0
 76
     1
 77
     6
 78
     2
 67
     7
 79
     5
170
     0
171
     0
290
     0
174
     0
 93
        1
 44
0.0
173
     0
291
     1
 45
0.0
1001
ACAD
1000
AcDbSavedByObjectVersion
1070
     0
  0
XRECORD
  5
56
102
{ACAD_REACTORS
330
4D
102
}
330
4D
100
AcDbXrecord
 90
        0
  0
XRECORD
  5
6C
102
{ACAD_REACTORS
330
4D
102
}
330
4D
100
AcDbXrecord
1000
DSTYLE
1002
{
1070
   340
340
11
1002
}
  0
XRECORD
  5
57
102
{ACAD_REACTORS
330
4D
102
}
330
4D
100
AcDbXrecord
  1
{796F11B2-8BB0-4BD1-8DC8-8D93F92DD056}
  0
XRECORD
  5
50
102
{ACAD_REACTORS
330
4D
102
}
330
4D
100
AcDbXrecord
  1

  0
XRECORD
  5
55
102
{ACAD_REACTORS
330
4D
102
}
330
4D
100
AcDbXrecord
 90
        1
  0
XRECORD
  5
52
102
{ACAD_REACTORS
330
4D
102
}
330
4D
100
AcDbXrecord
340
1A
  0
XRECORD
  5
54
102
{ACAD_REACTORS
330
4D
102
}
330
4D
100
AcDbXrecord
 90
    10269
  0
XRECORD
  5
53
102
{ACAD_REACTORS
330
4D
102
}
330
4D
100
AcDbXrecord
340
19
  0
XRECORD
  5
59
102
{ACAD_REACTORS
330
4D
102
}
330
4D
100
AcDbXrecord
 40
0.0
  0
XRECORD
  5
5C
102
{ACAD_REACTORS
330
4D
102
}
330
4D
100
AcDbXrecord
340
0
  0
XRECORD
  5
62
102
{ACAD_REACTORS
330
4D
102
}
330
4D
100
AcDbXrecord
 10
0.0
 20
0.0
 30
0.0
  0
XRECORD
  5
5E
102
{ACAD_REACTORS
330
4D
102
}
330
4D
100
AcDbXrecord
 10
0.0
 20
0.0
 30
0.0
  0
XRECORD
  5
61
102
{ACAD_REACTORS
330
4D
102
}
330
4D
100
AcDbXrecord
 10
0.0
 20
0.0
 30
0.0
  0
XRECORD
  5
5F
102
{ACAD_REACTORS
330
4D
102
}
330
4D
100
AcDbXrecord
 10
0.0
 20
0.0
 30
0.0
  0
XRECORD
  5
60
102
{ACAD_REACTORS
330
4D
102
}
330
4D
100
AcDbXrecord
 10
0.0
 20
0.0
 30
0.0
  0
XRECORD
  5
5D
102
{ACAD_REACTORS
330
4D
102
}
330
4D
100
AcDbXrecord
 10
0.0
 20
0.0
 30
0.0
  0
XRECORD
  5
5A
102
{ACAD_REACTORS
330
4D
102
}
330
4D
100
AcDbXrecord
340
0
  0
XRECORD
  5
5B
102
{ACAD_REACTORS
330
4D
102
}
330
4D
100
AcDbXrecord
 70
     0
  0
XRECORD
  5
51
102
{ACAD_REACTORS
330
4D
102
}
330
4D
100
AcDbXrecord
  1

  0
XRECORD
  5
4E
102
{ACAD_REACTORS
330
4D
102
}
330
4D
100
AcDbXrecord
 90
        1
  0
XRECORD
  5
4F
102
{ACAD_REACTORS
330
4D
102
}
330
4D
100
AcDbXrecord
 90
       70
  0
XRECORD
  5
65
102
{ACAD_REACTORS
330
4D
102
}
330
4D
100
AcDbXrecord
340
0
  0
XRECORD
  5
6B
102
{ACAD_REACTORS
330
4D
102
}
330
4D
100
AcDbXrecord
 10
0.0
 20
0.0
 30
0.0
  0
XRECORD
  5
67
102
{ACAD_REACTORS
330
4D
102
}
330
4D
100
AcDbXrecord
 10
0.0
 20
0.0
 30
0.0
  0
XRECORD
  5
6A
102
{ACAD_REACTORS
330
4D
102
}
330
4D
100
AcDbXrecord
 10
0.0
 20
0.0
 30
0.0
  0
XRECORD
  5
68
102
{ACAD_REACTORS
330
4D
102
}
330
4D
100
AcDbXrecord
 10
0.0
 20
0.0
 30
0.0
  0
XRECORD
  5
69
102
{ACAD_REACTORS
330
4D
102
}
330
4D
100
AcDbXrecord
 10
0.0
 20
0.0
 30
0.0
  0
XRECORD
  5
66
102
{ACAD_REACTORS
330
4D
102
}
330
4D
100
AcDbXrecord
 10
0.0
 20
0.0
 30
0.0
  0
XRECORD
  5
63
102
{ACAD_REACTORS
330
4D
102
}
330
4D
100
AcDbXrecord
340
0
  0
XRECORD
  5
64
102
{ACAD_REACTORS
330
4D
102
}
330
4D
100
AcDbXrecord
 70
     0
  0
XRECORD
  5
58
102
{ACAD_REACTORS
330
4D
102
}
330
4D
100
AcDbXrecord
  1
{FAEB1C32-E019-11D5-929B-00C0DF256EC4}
  0
ENDSEC
  0
EOF
